<?xml version="1.0" encoding="UTF-8" standalone="no"?>
<svg
   xmlns:dc="http://purl.org/dc/elements/1.1/"
   xmlns:cc="http://creativecommons.org/ns#"
   xmlns:rdf="http://www.w3.org/1999/02/22-rdf-syntax-ns#"
   xmlns:svg="http://www.w3.org/2000/svg"
   xmlns="http://www.w3.org/2000/svg"
   xmlns:sodipodi="http://sodipodi.sourceforge.net/DTD/sodipodi-0.dtd"
   xmlns:inkscape="http://www.inkscape.org/namespaces/inkscape"
   height="24"
   width="24"
   version="1.1"
   id="svg16"
   sodipodi:docname="mIconExpressionSelect.svg"
   inkscape:version="0.92.4 (5da689c313, 2019-01-14)">
  <metadata
     id="metadata22">
    <rdf:RDF>
      <cc:Work
         rdf:about="">
        <dc:format>image/svg+xml</dc:format>
        <dc:type
           rdf:resource="http://purl.org/dc/dcmitype/StillImage" />
      </cc:Work>
    </rdf:RDF>
  </metadata>
  <defs
     id="defs20" />
  <sodipodi:namedview
     pagecolor="#ffffff"
     bordercolor="#666666"
     borderopacity="1"
     objecttolerance="10"
     gridtolerance="10"
     guidetolerance="10"
     inkscape:pageopacity="0"
     inkscape:pageshadow="2"
     inkscape:window-width="1299"
     inkscape:window-height="660"
     id="namedview18"
     showgrid="false"
     inkscape:zoom="9.8333333"
     inkscape:cx="12"
     inkscape:cy="12"
     inkscape:window-x="46"
     inkscape:window-y="27"
     inkscape:window-maximized="0"
     inkscape:current-layer="svg16" />
  <g
     id="g73"
     transform="matrix(0.7,0,0,0.7,6.6,1.0000014)">
    <path
       id="path63"
       d="m 2.5,10.499998 h 19 v 19 h -19 z"
       inkscape:connector-curvature="0"
       style="fill:#e6e6e6;stroke:#6e97c4" />
    <path
       id="path65"
       d="M 5,16 H 9"
       inkscape:connector-curvature="0"
       style="fill:#46617e;fill-rule:evenodd;stroke:#455e78;stroke-width:2" />
    <rect
       id="rect67"
       y="13.5"
       x="10.5"
       width="8"
       rx="0.5"
       overflow="visible"
       height="5"
       style="overflow:visible;fill:#fafefe;fill-rule:evenodd;stroke:#6e97c4;stroke-width:0.99999994" />
    <path
       id="path69"
       d="M 5,24.000001 H 9"
       inkscape:connector-curvature="0"
       style="fill:#919699;fill-rule:evenodd;stroke:#455e78;stroke-width:2" />
    <rect
       id="rect71"
       y="21.5"
       x="10.500001"
       width="8"
       rx="0.5"
       overflow="visible"
       height="5"
       style="overflow:visible;fill:#fafefe;fill-rule:evenodd;stroke:#6e97c4;stroke-width:0.99999994" />
  </g>
  <g
     id="g12"
     transform="translate(-3.559082,-11.097165)">
    <path
       style="fill:#5c3566"
       inkscape:connector-curvature="0"
       id="path4"
       transform="translate(22.960894,0.402232)"
       d="m -12.901812,19.194933 c -1.92383,-0.683586 -2.885744,-1.718741 -2.885742,-3.105469 -2e-6,-1.093739 0.50781,-1.967761 1.523438,-2.62207 1.025386,-0.654284 2.294916,-0.981432 3.808593,-0.981445 1.3769451,1.3e-5 2.470694,0.229505 3.2812505,0.688476 0.8105357,0.449232 1.2158087,0.991223 1.2158203,1.625977 -1.16e-5,0.332042 -0.1269646,0.625011 -0.3808594,0.878906 -0.2539172,0.244151 -0.5468856,0.366221 -0.8789062,0.366211 -0.5468848,10e-6 -0.9961031,-0.380849 -1.3476563,-1.142578 -0.4882897,-1.054675 -1.2207109,-1.582019 -2.1972659,-1.582031 -0.77149,1.2e-5 -1.406255,0.253918 -1.904297,0.761718 -0.498051,0.507824 -0.747074,1.215832 -0.74707,2.124024 -4e-6,1.787117 0.922847,2.680671 2.768555,2.680664 0.195305,7e-6 0.419914,-0.01952 0.6738279,-0.05859 0.4394451,-0.05859 0.7812417,-0.08788 1.0253906,-0.08789 0.595694,8e-6 0.8935452,0.170906 0.8935547,0.512696 -9.5e-6,0.380866 -0.3027435,0.571295 -0.9082031,0.571289 -0.2148521,6e-6 -0.5371174,-0.03417 -0.9667969,-0.102539 -0.3222732,-0.05859 -0.5712962,-0.08788 -0.7470702,-0.08789 -1.95313,7e-6 -2.929692,0.996099 -2.929688,2.988281 -4e-6,0.9668 0.258785,1.748049 0.776368,2.34375 0.517572,0.585939 1.240228,0.878907 2.167968,0.878907 1.1621017,0 1.9335853,-0.600585 2.3144535,-1.801758 0.1953031,-0.634763 0.4101466,-1.074216 0.6445312,-1.31836 0.2441306,-0.244136 0.5663959,-0.366207 0.9667969,-0.366211 0.3320201,4e-6 0.6298714,0.122075 0.8935547,0.366211 0.2734255,0.234379 0.4101441,0.537113 0.4101562,0.908204 -1.21e-5,0.888673 -0.4980585,1.625977 -1.4941406,2.211914 -0.9961034,0.576171 -2.2021568,0.864257 -3.6181639,0.864257 -1.55274,0 -2.934575,-0.371093 -4.145508,-1.113281 -1.201173,-0.742186 -1.801759,-1.733396 -1.801758,-2.973633 -1e-6,-1.552729 1.196287,-2.695306 3.588867,-3.427734" />
    <path
       style="opacity:0.5;fill:#ffffff"
       inkscape:connector-curvature="0"
       id="path6"
       d="m 8.8453703,15.335963 c -1.8135886,1.95573 -1.401671,-0.322256 -0.3145916,-1.106748 1.1264312,-0.81289 1.7573183,-0.79349 1.7490763,-0.54418 -0.0096,0.290414 -0.8636237,1.035325 -1.4344847,1.650928 z" />
    <path
       style="opacity:0.5;fill:#ffffff"
       inkscape:connector-curvature="0"
       id="path8"
       d="m 8.2348719,21.645433 c -1.8135886,1.95573 -1.5022297,0.147018 -0.4151503,-0.637474 1.1264312,-0.81289 1.7573183,-0.79349 1.7490763,-0.54418 -0.0096,0.290414 -0.763065,0.566051 -1.333926,1.181654 z" />
    <path
       style="opacity:0.5;fill:#ffffff"
       inkscape:connector-curvature="0"
       id="path10"
       d="m 16.204463,23.831019 c -1.74795,1.952651 -1.613829,0.09846 -0.49057,-0.620714 0.858053,-0.549374 1.112902,-0.0745 0.49057,0.620714 z" />
  </g>
</svg>
